<svg xmlns="http://www.w3.org/2000/svg" xmlns:xlink="http://www.w3.org/1999/xlink" width="500" zoomAndPan="magnify" viewBox="0 0 375 374.999991" height="500" preserveAspectRatio="xMidYMid meet" version="1.2"><defs><clipPath id="4ffe085cc3"><path d="M 34.066406 34.066406 L 340.816406 34.066406 L 340.816406 340.816406 L 34.066406 340.816406 Z M 34.066406 34.066406 "/></clipPath></defs><g id="585c1c8e2b"><g clip-rule="nonzero" clip-path="url(#4ffe085cc3)"><path style=" stroke:none;fill-rule:nonzero;fill:#ffffff;fill-opacity:1;" d="M 187.605469 34.066406 C 185.84375 34.101562 184.445312 35.550781 184.460938 37.3125 L 184.460938 81.898438 C 184.511719 86.109375 190.816406 86.109375 190.851562 81.898438 L 190.851562 37.3125 C 190.886719 35.5 189.421875 34.035156 187.605469 34.066406 Z M 112.78125 54.089844 C 110.351562 54.1875 108.921875 56.835938 110.152344 58.914062 L 132.46875 97.542969 C 133.351562 99.074219 135.300781 99.589844 136.832031 98.707031 C 138.363281 97.824219 138.878906 95.878906 137.996094 94.347656 L 115.695312 55.738281 C 115.113281 54.671875 113.980469 54.039062 112.78125 54.089844 Z M 262.445312 54.089844 C 261.28125 54.089844 260.199219 54.703125 259.632812 55.738281 L 237.316406 94.347656 C 236.433594 95.878906 236.949219 97.824219 238.480469 98.707031 C 240.011719 99.605469 241.976562 99.074219 242.859375 97.542969 L 265.160156 58.914062 C 266.425781 56.800781 264.910156 54.105469 262.445312 54.089844 Z M 154.820312 60.695312 C 152.65625 60.644531 151.078125 62.691406 151.660156 64.757812 L 157.433594 86.292969 C 158.566406 90.351562 164.65625 88.722656 163.609375 84.644531 L 157.832031 63.109375 C 157.484375 61.710938 156.253906 60.730469 154.820312 60.695312 Z M 220.40625 60.695312 C 219.027344 60.777344 217.828125 61.746094 217.496094 63.109375 L 211.722656 84.644531 C 210.621094 88.753906 216.78125 90.402344 217.894531 86.292969 L 223.671875 64.773438 C 224.253906 62.660156 222.605469 60.578125 220.40625 60.695312 Z M 97.703125 93.613281 C 94.84375 93.613281 93.429688 97.09375 95.476562 99.089844 L 111.25 114.851562 C 112.5 116.113281 114.53125 116.113281 115.796875 114.867188 C 117.042969 113.617188 117.042969 111.585938 115.777344 110.339844 L 100 94.578125 C 99.402344 93.945312 98.570312 93.597656 97.703125 93.613281 Z M 277.523438 93.613281 C 276.691406 93.628906 275.894531 93.980469 275.328125 94.578125 L 259.550781 110.339844 C 258.300781 111.585938 258.285156 113.617188 259.550781 114.867188 C 260.800781 116.113281 262.828125 116.113281 264.078125 114.867188 L 279.835938 99.089844 C 281.933594 97.058594 280.4375 93.53125 277.523438 93.613281 Z M 187.671875 97.941406 C 142.574219 97.941406 105.910156 134.289062 105.910156 179.070312 C 105.910156 190.273438 108.207031 200.957031 112.332031 210.675781 C 116.476562 220.378906 122.46875 229.132812 129.859375 236.472656 C 133.570312 240.132812 137.613281 243.445312 141.957031 246.355469 C 145.75 248.902344 153.921875 255.328125 153.921875 268.875 L 153.921875 284.667969 C 153.921875 284.75 153.921875 284.832031 153.921875 284.898438 L 153.921875 308.183594 C 153.921875 326.238281 168.800781 340.816406 187.089844 340.816406 C 205.398438 340.816406 220.273438 326.238281 220.273438 308.183594 L 220.273438 268.875 C 220.273438 268.65625 220.273438 268.441406 220.242188 268.242188 C 220.523438 255.308594 229.410156 249.019531 233.371094 246.375 C 237.734375 243.460938 241.777344 240.132812 245.472656 236.472656 C 252.878906 229.132812 258.851562 220.394531 262.996094 210.675781 C 267.140625 200.972656 269.417969 190.289062 269.417969 179.089844 C 269.417969 134.304688 232.773438 97.941406 187.671875 97.941406 Z M 187.671875 104.332031 C 229.328125 104.332031 263.027344 137.765625 263.027344 179.070312 C 263.027344 189.40625 260.914062 199.226562 257.105469 208.164062 C 253.292969 217.101562 247.785156 225.15625 240.960938 231.929688 C 237.550781 235.304688 233.804688 238.367188 229.792969 241.066406 C 225.46875 243.960938 213.816406 252.515625 213.816406 268.875 C 213.816406 269.074219 213.835938 269.289062 213.882812 269.488281 L 213.882812 281.703125 L 191.019531 281.703125 L 191.019531 244.507812 C 198.324219 243.292969 204.214844 237.9375 204.296875 230.914062 C 204.296875 230.863281 204.296875 230.8125 204.296875 230.761719 C 204.296875 227.902344 204.863281 225.1875 205.914062 222.726562 C 206.960938 220.261719 208.492188 218.03125 210.371094 216.167969 C 211.023438 215.519531 211.703125 214.917969 212.4375 214.371094 C 213.402344 214.953125 214.535156 215.285156 215.75 215.285156 C 219.308594 215.285156 222.253906 212.339844 222.253906 208.777344 C 222.253906 205.21875 219.308594 202.269531 215.75 202.269531 C 212.1875 202.269531 209.222656 205.21875 209.222656 208.777344 C 209.222656 208.796875 209.222656 208.796875 209.222656 208.796875 C 208.027344 209.644531 206.910156 210.59375 205.863281 211.625 C 203.398438 214.070312 201.417969 216.984375 200.039062 220.226562 C 198.65625 223.472656 197.890625 227.035156 197.890625 230.761719 C 197.890625 234.640625 193.78125 238.386719 187.824219 238.386719 C 181.898438 238.386719 177.789062 234.691406 177.738281 230.828125 C 177.738281 230.796875 177.738281 230.78125 177.738281 230.761719 C 177.738281 220.296875 171.730469 211.207031 162.976562 206.714844 C 164.972656 205.582031 166.820312 204.183594 168.433594 202.570312 C 169.566406 201.457031 170.597656 200.222656 171.496094 198.894531 C 172.195312 199.726562 172.8125 200.65625 173.328125 201.707031 C 174.09375 203.304688 176.023438 203.96875 177.605469 203.1875 C 179.203125 202.40625 179.851562 200.472656 179.070312 198.894531 C 176.539062 193.75 172.128906 190.207031 167.121094 188.792969 C 166.820312 188.691406 166.503906 188.640625 166.171875 188.640625 C 162.476562 188.691406 161.8125 193.933594 165.390625 194.914062 C 165.6875 195 165.988281 195.097656 166.269531 195.214844 C 165.589844 196.214844 164.789062 197.164062 163.925781 198.027344 C 160.414062 201.523438 155.585938 203.667969 150.210938 203.667969 C 139.476562 203.667969 130.839844 195.082031 130.839844 184.414062 C 130.839844 181.75 131.390625 179.238281 132.355469 176.941406 C 133.335938 174.628906 134.75 172.546875 136.515625 170.816406 C 138.261719 169.070312 140.359375 167.65625 142.671875 166.671875 C 143.121094 166.507812 143.570312 166.324219 144.035156 166.175781 C 144.121094 167.324219 144.320312 168.472656 144.621094 169.636719 C 146 174.828125 149.394531 179.003906 153.722656 181.5 C 155.886719 182.765625 158.300781 183.597656 160.8125 183.949219 C 162.578125 184.214844 164.207031 183 164.457031 181.234375 C 164.707031 179.472656 163.457031 177.855469 161.695312 177.625 C 160.113281 177.390625 158.582031 176.875 157.199219 176.125 C 157.832031 175.910156 158.464844 175.644531 159.066406 175.3125 C 163.441406 173.015625 165.804688 168.054688 164.574219 163.261719 C 164.058594 160.980469 162.726562 159.035156 160.996094 157.671875 C 160.414062 157.203125 159.679688 156.953125 158.933594 156.953125 C 155.902344 157.019531 154.636719 160.847656 157.035156 162.695312 C 157.71875 163.230469 158.199219 163.960938 158.367188 164.710938 L 158.382812 164.777344 L 158.414062 164.84375 C 158.832031 166.425781 157.75 168.835938 156.101562 169.703125 L 156.050781 169.71875 L 156.019531 169.753906 C 154.503906 170.585938 152.324219 170.285156 151.226562 169.253906 C 151.078125 168.855469 150.925781 168.4375 150.828125 168.003906 C 148.945312 160.964844 153.105469 153.792969 160.195312 151.910156 C 161.960938 151.445312 163.726562 151.363281 165.421875 151.597656 C 167.121094 151.828125 168.734375 152.410156 170.199219 153.242188 C 171.664062 154.09375 172.960938 155.222656 174.007812 156.570312 C 174.527344 157.238281 174.992188 157.96875 175.375 158.75 C 176.140625 160.382812 178.105469 161.066406 179.71875 160.265625 C 181.332031 159.46875 181.949219 157.488281 181.097656 155.890625 C 180.515625 154.722656 179.835938 153.644531 179.050781 152.644531 C 178.917969 152.460938 178.785156 152.3125 178.652344 152.144531 C 181.996094 150.082031 185.574219 149.398438 188.972656 150.296875 C 192.847656 151.3125 195.859375 154.207031 197.660156 158.4375 C 197.675781 158.453125 197.675781 158.453125 197.691406 158.46875 C 197.707031 158.484375 197.707031 158.503906 197.726562 158.519531 C 198.574219 160.332031 198.855469 162.480469 198.441406 164.394531 C 198.023438 166.308594 197.042969 167.503906 195.992188 168.105469 C 194.464844 168.988281 193.929688 170.949219 194.828125 172.480469 C 195.710938 174.03125 197.691406 174.546875 199.222656 173.648438 C 201.953125 172.050781 203.933594 169.203125 204.679688 165.757812 C 205.414062 162.429688 204.949219 159.019531 203.617188 156.054688 C 203.597656 156.007812 203.582031 155.957031 203.566406 155.90625 C 203.234375 155.125 202.851562 154.359375 202.433594 153.625 C 203.867188 153.292969 205.363281 153.109375 206.894531 153.109375 C 216.714844 153.109375 224.769531 160.28125 226.082031 169.652344 C 224.152344 169.769531 222.273438 170.203125 220.507812 170.917969 C 220.257812 170.984375 220.007812 171.101562 219.792969 171.234375 C 219.574219 171.332031 219.375 171.464844 219.191406 171.617188 C 218.609375 172 217.945312 172.164062 217.210938 172.050781 C 215.582031 171.78125 214.382812 170.183594 214.648438 168.335938 C 214.78125 167.40625 215.25 166.691406 215.882812 166.222656 C 218.34375 164.394531 217.0625 160.484375 213.984375 160.464844 C 213.269531 160.449219 212.570312 160.699219 212.003906 161.132812 C 210.074219 162.613281 208.707031 164.84375 208.324219 167.421875 C 207.578125 172.582031 211.054688 177.542969 216.214844 178.355469 C 218.59375 178.738281 220.957031 178.15625 222.820312 176.875 C 225.433594 175.792969 228.429688 175.660156 231.292969 176.792969 C 237.167969 179.105469 240.046875 185.695312 237.75 191.605469 C 237.183594 193.050781 236.367188 194.300781 235.371094 195.347656 C 234.371094 194.699219 233.171875 194.316406 231.90625 194.316406 C 228.347656 194.316406 225.402344 197.277344 225.402344 200.824219 C 225.402344 204.386719 228.347656 207.347656 231.90625 207.347656 C 235.335938 207.347656 238.199219 204.601562 238.398438 201.238281 C 240.695312 199.359375 242.558594 196.878906 243.707031 193.933594 C 247.253906 184.796875 242.726562 174.429688 233.640625 170.851562 C 233.289062 170.699219 232.941406 170.585938 232.589844 170.484375 C 231.625 157.222656 220.457031 146.71875 206.894531 146.71875 C 203.847656 146.71875 200.902344 147.253906 198.175781 148.21875 C 196.042969 146.285156 193.515625 144.839844 190.617188 144.074219 C 187.621094 143.292969 184.578125 143.324219 181.664062 144.023438 C 178.800781 144.707031 176.074219 146.019531 173.625 147.816406 C 173.558594 147.785156 173.492188 147.734375 173.425781 147.703125 C 171.246094 146.4375 168.851562 145.605469 166.335938 145.253906 C 163.808594 144.890625 161.179688 145.039062 158.566406 145.722656 C 151.640625 147.550781 146.566406 152.925781 144.734375 159.367188 C 143.1875 159.699219 141.671875 160.183594 140.226562 160.78125 C 137.148438 162.082031 134.367188 163.960938 132.039062 166.273438 C 129.707031 168.585938 127.828125 171.351562 126.511719 174.429688 C 125.214844 177.492188 124.480469 180.871094 124.480469 184.414062 C 124.480469 198.542969 136.066406 210.042969 150.226562 210.058594 C 150.359375 210.078125 150.476562 210.078125 150.59375 210.078125 C 162.09375 210.078125 171.332031 219.246094 171.378906 230.628906 C 171.378906 230.679688 171.378906 230.714844 171.378906 230.761719 C 171.378906 237.851562 177.304688 243.261719 184.660156 244.492188 L 184.660156 281.6875 L 160.347656 281.6875 L 160.347656 268.890625 C 160.347656 268.875 160.347656 268.875 160.347656 268.855469 C 160.347656 252.679688 150.128906 244.109375 145.550781 241.046875 C 141.558594 238.367188 137.8125 235.304688 134.402344 231.910156 C 127.578125 225.15625 122.070312 217.101562 118.257812 208.164062 C 114.445312 199.226562 112.332031 189.390625 112.332031 179.070312 C 112.332031 137.765625 146.035156 104.316406 187.707031 104.316406 Z M 58.296875 108.792969 C 54.949219 108.675781 53.6875 113.136719 56.613281 114.78125 L 95.257812 137.066406 C 96.789062 137.964844 98.753906 137.449219 99.636719 135.917969 C 100.515625 134.371094 99.984375 132.40625 98.453125 131.542969 L 59.808594 109.242188 C 59.359375 108.976562 58.828125 108.808594 58.296875 108.792969 Z M 317.25 108.792969 C 316.632812 108.773438 316.035156 108.925781 315.503906 109.242188 L 276.875 131.542969 C 275.328125 132.40625 274.777344 134.386719 275.675781 135.917969 C 276.558594 137.464844 278.539062 137.980469 280.070312 137.082031 L 318.699219 114.78125 C 321.527344 113.203125 320.476562 108.910156 317.25 108.792969 Z M 64.71875 150.613281 C 60.992188 150.695312 60.394531 155.988281 64.003906 156.90625 L 85.554688 162.664062 C 87.269531 163.179688 89.066406 162.164062 89.535156 160.433594 C 90 158.703125 88.949219 156.921875 87.203125 156.503906 L 65.652344 150.730469 C 65.351562 150.648438 65.035156 150.597656 64.71875 150.613281 Z M 310.507812 150.613281 C 310.226562 150.613281 309.945312 150.648438 309.660156 150.730469 L 288.125 156.488281 C 286.378906 156.921875 285.3125 158.703125 285.777344 160.433594 C 286.246094 162.164062 288.058594 163.179688 289.773438 162.664062 L 311.324219 156.90625 C 314.984375 155.972656 314.289062 150.582031 310.507812 150.597656 Z M 176.40625 165.839844 C 175.007812 165.839844 173.761719 166.757812 173.359375 168.089844 C 171.730469 173.164062 171.996094 178.9375 174.492188 184.246094 C 176.972656 189.558594 181.230469 193.484375 186.175781 195.53125 C 187.824219 196.246094 189.71875 195.480469 190.402344 193.816406 C 191.085938 192.167969 190.285156 190.273438 188.605469 189.625 C 185.160156 188.191406 182.097656 185.414062 180.285156 181.535156 C 180.183594 181.335938 180.085938 181.101562 180 180.886719 C 183.628906 180.71875 187.058594 179.519531 189.871094 177.542969 C 192.398438 175.792969 191.269531 171.832031 188.1875 171.714844 C 187.472656 171.683594 186.757812 171.898438 186.175781 172.316406 C 184.144531 173.761719 181.515625 174.59375 178.734375 174.511719 C 178.753906 172.964844 178.984375 171.464844 179.433594 170.050781 C 180.132812 167.972656 178.585938 165.824219 176.40625 165.839844 Z M 142.304688 176.027344 C 141.472656 175.992188 140.660156 176.292969 140.042969 176.859375 C 134.851562 181.417969 134.367188 189.441406 138.925781 194.632812 C 143.488281 199.839844 151.492188 200.390625 156.683594 195.8125 C 158.015625 194.648438 158.148438 192.636719 156.984375 191.304688 C 155.804688 189.972656 153.789062 189.855469 152.457031 191.019531 C 149.878906 193.300781 146.015625 193.050781 143.738281 190.4375 C 141.441406 187.808594 141.691406 183.933594 144.269531 181.652344 C 146.484375 179.753906 145.21875 176.125 142.304688 176.027344 Z M 199.171875 179.105469 C 196.875 179.207031 195.445312 181.601562 196.410156 183.664062 C 197.691406 186.460938 199.488281 188.957031 201.703125 190.9375 C 199.105469 193.316406 197.390625 196.429688 196.59375 199.742188 C 196.160156 201.472656 197.226562 203.203125 198.957031 203.621094 C 200.6875 204.035156 202.417969 202.953125 202.816406 201.222656 C 203.449219 198.542969 204.996094 196.179688 207.246094 194.699219 C 207.34375 194.632812 207.425781 194.582031 207.511719 194.515625 C 208.375 194.847656 209.273438 195.117188 210.222656 195.296875 C 216.515625 196.597656 222.871094 194.433594 227.929688 190.253906 C 229.328125 189.140625 229.542969 187.109375 228.414062 185.730469 C 227.265625 184.347656 225.234375 184.164062 223.871094 185.3125 C 219.976562 188.542969 215.582031 189.871094 211.503906 189.039062 C 207.410156 188.207031 204.214844 185.378906 202.234375 181.035156 C 201.703125 179.820312 200.488281 179.070312 199.171875 179.121094 Z M 82.828125 183.515625 C 82.828125 183.515625 82.808594 183.515625 82.792969 183.515625 L 38.191406 183.515625 C 36.378906 183.464844 34.898438 184.898438 34.898438 186.710938 C 34.898438 188.507812 36.378906 189.957031 38.191406 189.90625 L 82.792969 189.90625 C 84.589844 189.957031 86.089844 188.523438 86.089844 186.726562 C 86.105469 184.929688 84.625 183.480469 82.828125 183.515625 Z M 337.171875 183.515625 C 337.152344 183.515625 337.136719 183.515625 337.136719 183.515625 L 292.519531 183.515625 C 290.722656 183.464844 289.222656 184.898438 289.222656 186.710938 C 289.222656 188.507812 290.722656 189.957031 292.519531 189.90625 L 337.136719 189.90625 C 338.917969 189.957031 340.414062 188.523438 340.414062 186.726562 C 340.433594 184.929688 338.96875 183.480469 337.171875 183.515625 Z M 179.835938 207.046875 C 178.070312 207.03125 176.640625 208.460938 176.621094 210.226562 C 176.507812 216.382812 181.632812 221.410156 187.824219 221.476562 C 194.03125 221.527344 199.289062 216.648438 199.40625 210.492188 C 199.4375 206.28125 193.132812 206.164062 193.015625 210.375 C 192.964844 212.957031 190.75 215.101562 187.890625 215.085938 C 185.042969 215.050781 182.964844 212.921875 183.011719 210.34375 C 183.078125 208.546875 181.632812 207.046875 179.835938 207.046875 Z M 86.40625 210.625 C 86.121094 210.625 85.824219 210.675781 85.554688 210.742188 L 64.003906 216.515625 C 62.289062 216.964844 61.257812 218.730469 61.707031 220.445312 C 62.171875 222.160156 63.9375 223.175781 65.652344 222.691406 L 87.203125 216.917969 C 90.863281 215.984375 90.183594 210.609375 86.40625 210.625 Z M 288.824219 210.625 C 285.113281 210.710938 284.515625 216.019531 288.125 216.917969 L 309.660156 222.691406 C 313.789062 223.789062 315.433594 217.617188 311.324219 216.515625 L 289.773438 210.757812 C 289.472656 210.660156 289.140625 210.625 288.824219 210.625 Z M 160.3125 288.09375 L 213.882812 288.09375 L 213.882812 308.167969 C 213.882812 322.746094 202.019531 334.425781 187.089844 334.425781 C 172.164062 334.425781 160.3125 322.746094 160.3125 308.167969 Z M 168.382812 299.496094 C 164.15625 299.527344 164.15625 305.851562 168.382812 305.886719 L 205.796875 305.886719 C 207.578125 305.902344 209.023438 304.472656 209.023438 302.691406 C 209.023438 300.910156 207.578125 299.480469 205.796875 299.496094 Z M 200.753906 313.589844 C 200.738281 313.589844 200.71875 313.589844 200.703125 313.589844 L 173.460938 313.589844 C 171.664062 313.523438 170.148438 314.972656 170.148438 316.769531 C 170.148438 318.585938 171.664062 320.03125 173.460938 319.964844 L 200.703125 319.964844 C 202.519531 320.03125 204.015625 318.601562 204.015625 316.804688 C 204.03125 314.988281 202.550781 313.542969 200.753906 313.589844 Z M 200.753906 313.589844 "/></g></g></svg>