<svg xmlns="http://www.w3.org/2000/svg" xmlns:xlink="http://www.w3.org/1999/xlink" width="500" zoomAndPan="magnify" viewBox="0 0 375 374.999991" height="500" preserveAspectRatio="xMidYMid meet" version="1.2"><defs><clipPath id="c8a47e2ec0"><path d="M 91.863281 211 L 105 211 L 105 218 L 91.863281 218 Z M 91.863281 211 "/></clipPath><clipPath id="3a12b0abd1"><path d="M 196 92 L 283.113281 92 L 283.113281 179 L 196 179 Z M 196 92 "/></clipPath></defs><g id="8177c3fe54"><path style=" stroke:none;fill-rule:nonzero;fill:#ffffff;fill-opacity:1;" d="M 141.171875 163.4375 L 141.171875 169.863281 C 141.171875 171.503906 142.515625 172.851562 144.160156 172.851562 C 145.804688 172.851562 147.148438 171.503906 147.148438 169.863281 L 147.148438 163.4375 C 147.148438 161.792969 145.804688 160.449219 144.160156 160.449219 C 142.515625 160.449219 141.171875 161.792969 141.171875 163.4375 Z M 141.171875 163.4375 "/><path style=" stroke:none;fill-rule:nonzero;fill:#ffffff;fill-opacity:1;" d="M 118.011719 167.621094 C 116.519531 168.367188 116.070312 170.308594 116.816406 171.65625 L 119.953125 177.332031 C 120.550781 178.378906 121.449219 178.828125 122.496094 178.828125 C 122.941406 178.828125 123.539062 178.675781 123.988281 178.378906 C 125.484375 177.632812 125.929688 175.6875 125.183594 174.34375 L 122.046875 168.667969 C 121.300781 167.320312 119.507812 166.875 118.011719 167.621094 Z M 118.011719 167.621094 "/><path style=" stroke:none;fill-rule:nonzero;fill:#ffffff;fill-opacity:1;" d="M 170.308594 167.621094 C 168.8125 166.875 167.019531 167.320312 166.273438 168.816406 L 163.136719 174.492188 C 162.386719 175.988281 162.835938 177.78125 164.332031 178.527344 C 164.777344 178.828125 165.226562 178.976562 165.824219 178.976562 C 166.871094 178.976562 167.917969 178.378906 168.363281 177.480469 L 171.503906 171.804688 C 172.25 170.308594 171.652344 168.367188 170.308594 167.621094 Z M 170.308594 167.621094 "/><path style=" stroke:none;fill-rule:nonzero;fill:#ffffff;fill-opacity:1;" d="M 173.144531 213.9375 C 173.144531 213.789062 173.144531 213.789062 173.144531 213.640625 C 173.144531 213.789062 172.996094 213.9375 173.144531 213.9375 Z M 173.144531 213.9375 "/><path style=" stroke:none;fill-rule:nonzero;fill:#ffffff;fill-opacity:1;" d="M 159.699219 257.867188 L 159.699219 254.28125 C 158.953125 254.730469 158.203125 255.027344 157.457031 255.175781 C 157.007812 255.328125 156.410156 255.476562 155.964844 255.625 C 155.214844 255.773438 154.46875 255.925781 153.722656 256.074219 L 153.722656 257.867188 C 153.722656 258.316406 153.421875 258.914062 153.273438 259.0625 L 133.101562 259.0625 C 132.804688 258.914062 132.355469 258.316406 132.355469 257.867188 L 132.355469 251.144531 C 132.355469 245.464844 129.667969 240.234375 124.886719 236.648438 C 116.964844 230.671875 112.632812 221.261719 113.230469 211.546875 C 114.277344 197.054688 126.230469 185.402344 141.023438 184.355469 C 149.238281 183.757812 157.007812 186.445312 163.136719 191.824219 C 164.929688 191.378906 166.722656 191.078125 168.515625 191.078125 C 169.410156 191.078125 170.15625 191.226562 170.90625 191.378906 C 169.859375 190.183594 168.8125 189.136719 167.765625 187.941406 C 160.445312 181.21875 150.585938 177.632812 140.425781 178.378906 C 122.644531 179.574219 108.300781 193.617188 107.105469 211.101562 C 106.359375 222.902344 111.585938 234.109375 121 241.28125 C 124.289062 243.671875 126.082031 247.257812 126.082031 250.992188 L 126.082031 257.71875 C 126.082031 261.152344 128.917969 264.890625 132.65625 264.890625 L 153.125 264.890625 C 157.160156 265.039062 159.699219 261.304688 159.699219 257.867188 Z M 159.699219 257.867188 "/><path style=" stroke:none;fill-rule:nonzero;fill:#ffffff;fill-opacity:1;" d="M 156.710938 271.015625 C 156.710938 269.371094 155.367188 268.027344 153.722656 268.027344 L 132.804688 268.027344 C 131.160156 268.027344 129.816406 269.371094 129.816406 271.015625 C 129.816406 272.660156 131.160156 274.003906 132.804688 274.003906 L 153.722656 274.003906 C 155.367188 274.003906 156.710938 272.660156 156.710938 271.015625 Z M 156.710938 271.015625 "/><path style=" stroke:none;fill-rule:nonzero;fill:#ffffff;fill-opacity:1;" d="M 135.792969 276.992188 C 134.148438 276.992188 132.804688 278.335938 132.804688 279.980469 C 132.804688 281.625 134.148438 282.96875 135.792969 282.96875 L 150.734375 282.96875 C 152.378906 282.96875 153.722656 281.625 153.722656 279.980469 C 153.722656 278.335938 152.378906 276.992188 150.734375 276.992188 Z M 135.792969 276.992188 "/><path style=" stroke:none;fill-rule:nonzero;fill:#ffffff;fill-opacity:1;" d="M 106.957031 195.113281 C 108 195.113281 108.898438 194.664062 109.496094 193.617188 C 110.390625 192.273438 109.945312 190.332031 108.449219 189.585938 L 103.070312 186.296875 C 101.578125 185.402344 99.785156 185.847656 99.035156 187.34375 C 98.289062 188.835938 98.589844 190.628906 100.082031 191.378906 L 105.3125 194.664062 C 105.910156 194.964844 106.359375 195.113281 106.957031 195.113281 Z M 106.957031 195.113281 "/><g clip-rule="nonzero" clip-path="url(#c8a47e2ec0)"><path style=" stroke:none;fill-rule:nonzero;fill:#ffffff;fill-opacity:1;" d="M 91.863281 214.238281 C 91.863281 215.882812 93.210938 217.226562 94.851562 217.226562 L 101.128906 217.226562 C 102.773438 217.226562 104.117188 215.882812 104.117188 214.238281 C 104.117188 212.59375 102.773438 211.25 101.128906 211.25 L 94.851562 211.25 C 93.210938 211.25 91.863281 212.59375 91.863281 214.238281 Z M 91.863281 214.238281 "/></g><g clip-rule="nonzero" clip-path="url(#3a12b0abd1)"><path style=" stroke:none;fill-rule:nonzero;fill:#ffffff;fill-opacity:1;" d="M 283.113281 94.855469 C 283.113281 94.558594 283.113281 94.40625 283.113281 94.109375 C 283.113281 94.109375 283.113281 93.960938 283.113281 93.960938 C 283.113281 93.660156 282.964844 93.511719 282.816406 93.210938 C 282.667969 93.0625 282.667969 92.914062 282.515625 92.914062 C 282.515625 92.914062 282.367188 92.765625 282.367188 92.765625 C 282.367188 92.765625 282.367188 92.765625 282.367188 92.613281 C 282.21875 92.464844 281.917969 92.316406 281.769531 92.167969 C 281.769531 92.167969 281.769531 92.167969 281.621094 92.167969 C 281.472656 92.015625 281.171875 92.015625 281.023438 92.015625 C 281.023438 92.015625 280.875 92.015625 280.875 92.015625 C 280.574219 92.015625 280.425781 92.015625 280.125 92.015625 C 280.125 92.015625 279.976562 92.015625 279.976562 92.015625 C 279.828125 92.015625 279.527344 92.015625 279.378906 92.167969 C 279.378906 92.167969 279.378906 92.167969 279.230469 92.167969 L 198.546875 123.09375 C 197.351562 123.542969 196.605469 124.738281 196.605469 125.933594 C 196.605469 127.128906 197.5 128.324219 198.695312 128.773438 L 219.316406 135.644531 L 223.050781 167.171875 C 223.050781 167.769531 223.347656 168.21875 223.648438 168.667969 C 223.199219 169.113281 222.902344 169.5625 222.601562 170.160156 C 222.304688 171.355469 221.855469 172.699219 221.257812 173.894531 C 220.511719 175.390625 221.257812 177.183594 222.75 177.78125 C 223.199219 177.929688 223.5 178.078125 223.945312 178.078125 C 225.140625 178.078125 226.1875 177.480469 226.636719 176.285156 C 227.382812 174.792969 227.832031 173.148438 228.28125 171.65625 C 228.578125 170.757812 228.28125 169.710938 227.683594 168.964844 C 227.832031 168.816406 227.980469 168.816406 227.980469 168.667969 L 246.058594 147.75 L 259.65625 154.023438 C 260.402344 154.324219 261.300781 154.324219 262.046875 154.023438 C 262.792969 153.726562 263.390625 152.976562 263.691406 152.230469 L 282.816406 95.902344 C 282.816406 95.902344 282.816406 95.902344 282.816406 95.753906 C 283.113281 95.304688 283.113281 95.15625 283.113281 94.855469 Z M 233.507812 138.632812 L 227.53125 155.367188 L 225.140625 134.601562 L 258.761719 112.488281 L 234.257812 137.4375 C 233.957031 137.886719 233.660156 138.1875 233.507812 138.632812 Z M 255.621094 107.257812 L 221.554688 129.667969 L 208.40625 125.335938 Z M 259.207031 146.851562 L 246.65625 141.023438 C 245.460938 140.425781 243.96875 140.726562 243.222656 141.773438 L 235.601562 150.585938 L 238.886719 141.175781 L 272.953125 106.210938 Z M 259.207031 146.851562 "/></g><path style=" stroke:none;fill-rule:nonzero;fill:#ffffff;fill-opacity:1;" d="M 141.46875 244.71875 C 139.828125 244.570312 138.332031 245.765625 138.183594 247.40625 C 138.035156 249.050781 139.230469 250.546875 140.871094 250.695312 C 141.621094 250.84375 142.515625 250.84375 143.261719 250.84375 C 143.261719 250.84375 143.414062 250.84375 143.414062 250.84375 C 145.054688 250.84375 146.25 249.648438 146.402344 248.003906 C 146.550781 246.363281 145.207031 245.015625 143.5625 244.867188 C 142.816406 244.867188 142.21875 244.71875 141.46875 244.71875 Z M 141.46875 244.71875 "/><path style=" stroke:none;fill-rule:nonzero;fill:#ffffff;fill-opacity:1;" d="M 160.148438 221.261719 C 160.59375 221.558594 161.042969 222.007812 161.492188 222.304688 C 161.941406 222.605469 162.539062 222.753906 163.136719 222.753906 C 164.03125 222.753906 165.078125 222.304688 165.675781 221.410156 C 166.570312 220.066406 166.273438 218.121094 164.929688 217.226562 C 164.628906 217.078125 164.332031 216.777344 164.03125 216.628906 C 163.433594 216.179688 162.835938 215.582031 162.386719 214.984375 C 161.34375 213.640625 159.550781 213.339844 158.203125 214.386719 C 156.859375 215.433594 156.5625 217.226562 157.605469 218.570312 C 158.203125 219.46875 159.101562 220.511719 160.148438 221.261719 Z M 160.148438 221.261719 "/><path style=" stroke:none;fill-rule:nonzero;fill:#ffffff;fill-opacity:1;" d="M 181.664062 229.328125 C 182.410156 227.835938 183.15625 226.339844 183.605469 224.847656 C 184.800781 224.546875 185.847656 224.097656 187.042969 223.652344 C 188.535156 223.054688 189.28125 221.261719 188.683594 219.765625 C 188.085938 218.273438 186.292969 217.523438 184.800781 218.121094 C 185.097656 217.675781 185.25 217.226562 185.25 216.628906 C 185.25 216.480469 185.25 216.179688 185.25 216.03125 C 185.25 215.132812 185.25 214.238281 185.097656 213.339844 C 184.949219 212.742188 184.949219 212.144531 184.800781 211.398438 C 184.5 209.753906 182.859375 208.710938 181.214844 209.15625 C 179.570312 209.457031 178.523438 211.101562 178.972656 212.742188 C 179.121094 213.191406 179.121094 213.640625 179.121094 214.089844 C 179.273438 214.6875 179.273438 215.433594 179.273438 216.03125 L 179.273438 216.480469 C 179.273438 217.824219 180.019531 218.871094 181.214844 219.316406 C 181.214844 219.316406 181.066406 219.316406 181.066406 219.316406 C 179.871094 219.617188 179.121094 220.511719 178.824219 221.558594 C 178.523438 221.859375 178.226562 222.304688 178.078125 222.753906 C 177.628906 223.949219 177.03125 225.144531 176.433594 226.339844 C 175.6875 227.835938 176.132812 229.628906 177.628906 230.375 C 178.078125 230.671875 178.523438 230.671875 178.972656 230.671875 C 180.167969 230.824219 181.214844 230.375 181.664062 229.328125 Z M 181.664062 229.328125 "/><path style=" stroke:none;fill-rule:nonzero;fill:#ffffff;fill-opacity:1;" d="M 171.800781 240.234375 C 172.546875 240.234375 173.296875 239.9375 173.894531 239.488281 C 175.089844 238.441406 176.132812 237.246094 177.179688 236.050781 C 178.226562 234.855469 178.078125 232.914062 176.882812 231.867188 C 175.535156 230.671875 173.742188 230.824219 172.546875 232.019531 C 171.652344 233.0625 170.753906 234.109375 169.710938 235.007812 C 168.515625 236.203125 168.515625 237.996094 169.558594 239.191406 C 170.308594 239.9375 171.054688 240.234375 171.800781 240.234375 Z M 171.800781 240.234375 "/><path style=" stroke:none;fill-rule:nonzero;fill:#ffffff;fill-opacity:1;" d="M 157.457031 212.894531 C 159.101562 212.894531 160.445312 211.546875 160.59375 210.054688 C 160.59375 209.90625 160.59375 209.605469 160.59375 209.457031 C 160.746094 208.710938 160.894531 207.960938 161.34375 207.214844 C 162.238281 205.722656 161.640625 203.929688 160.296875 203.179688 C 158.800781 202.285156 157.007812 202.882812 156.261719 204.226562 C 155.515625 205.570312 154.917969 207.066406 154.769531 208.710938 C 154.769531 209.15625 154.617188 209.457031 154.617188 209.90625 C 154.46875 211.398438 155.8125 212.742188 157.457031 212.894531 Z M 157.457031 212.894531 "/><path style=" stroke:none;fill-rule:nonzero;fill:#ffffff;fill-opacity:1;" d="M 171.652344 200.042969 C 171.652344 198.398438 170.308594 197.054688 168.664062 197.054688 C 166.871094 197.054688 164.929688 197.503906 163.285156 198.101562 C 161.789062 198.699219 161.042969 200.492188 161.640625 201.984375 C 162.089844 203.179688 163.285156 203.929688 164.480469 203.929688 C 164.777344 203.929688 165.226562 203.929688 165.527344 203.777344 C 166.570312 203.332031 167.765625 203.179688 168.8125 203.179688 C 170.308594 203.03125 171.652344 201.6875 171.652344 200.042969 Z M 171.652344 200.042969 "/><path style=" stroke:none;fill-rule:nonzero;fill:#ffffff;fill-opacity:1;" d="M 162.089844 246.960938 C 162.539062 246.960938 162.984375 246.808594 163.433594 246.660156 C 164.929688 245.914062 166.273438 245.167969 167.617188 244.269531 C 168.960938 243.375 169.410156 241.582031 168.515625 240.085938 C 167.617188 238.59375 165.824219 238.292969 164.332031 239.191406 C 163.136719 239.9375 161.941406 240.535156 160.746094 241.132812 C 159.25 241.878906 158.652344 243.671875 159.398438 245.167969 C 159.996094 246.363281 161.042969 246.960938 162.089844 246.960938 Z M 162.089844 246.960938 "/><path style=" stroke:none;fill-rule:nonzero;fill:#ffffff;fill-opacity:1;" d="M 190.179688 167.621094 C 188.238281 167.621094 186.292969 168.070312 184.652344 168.816406 C 183.15625 169.414062 182.410156 171.207031 183.15625 172.699219 C 183.605469 173.894531 184.800781 174.492188 185.847656 174.492188 C 186.292969 174.492188 186.59375 174.34375 187.042969 174.195312 C 187.9375 173.746094 189.132812 173.597656 190.328125 173.449219 C 191.972656 173.449219 193.316406 172.101562 193.167969 170.308594 C 193.167969 168.816406 191.824219 167.621094 190.179688 167.621094 Z M 190.179688 167.621094 "/><path style=" stroke:none;fill-rule:nonzero;fill:#ffffff;fill-opacity:1;" d="M 200.636719 211.847656 C 201.535156 211.847656 202.582031 211.398438 203.179688 210.503906 C 204.074219 209.15625 204.972656 207.8125 205.71875 206.320312 C 206.464844 204.824219 205.867188 203.03125 204.375 202.285156 C 202.878906 201.539062 201.085938 202.136719 200.339844 203.628906 C 199.742188 204.824219 198.996094 206.019531 198.246094 207.066406 C 197.351562 208.410156 197.648438 210.351562 198.996094 211.25 C 199.441406 211.699219 200.039062 211.847656 200.636719 211.847656 Z M 200.636719 211.847656 "/><path style=" stroke:none;fill-rule:nonzero;fill:#ffffff;fill-opacity:1;" d="M 191.226562 191.378906 C 191.972656 189.882812 191.375 188.089844 190.03125 187.34375 C 188.984375 186.746094 187.9375 186 187.042969 185.25 C 185.847656 184.054688 183.902344 184.207031 182.859375 185.402344 C 181.664062 186.597656 181.8125 188.539062 183.007812 189.585938 C 184.351562 190.78125 185.695312 191.824219 187.191406 192.574219 C 187.640625 192.871094 188.085938 192.871094 188.535156 192.871094 C 189.582031 193.019531 190.628906 192.421875 191.226562 191.378906 Z M 191.226562 191.378906 "/><path style=" stroke:none;fill-rule:nonzero;fill:#ffffff;fill-opacity:1;" d="M 198.84375 170.160156 C 197.5 169.265625 195.558594 169.5625 194.660156 170.90625 C 193.765625 172.253906 194.0625 174.195312 195.410156 175.089844 C 196.304688 175.6875 197.203125 176.585938 198.097656 177.480469 C 198.695312 178.230469 199.59375 178.527344 200.339844 178.527344 C 200.9375 178.527344 201.683594 178.378906 202.28125 177.78125 C 203.625 176.734375 203.777344 174.792969 202.730469 173.597656 C 201.683594 172.253906 200.339844 171.058594 198.84375 170.160156 Z M 198.84375 170.160156 "/><path style=" stroke:none;fill-rule:nonzero;fill:#ffffff;fill-opacity:1;" d="M 192.421875 220.363281 C 193.019531 220.363281 193.617188 220.214844 194.214844 219.765625 C 195.558594 218.871094 196.753906 217.824219 197.949219 216.628906 C 199.144531 215.433594 199.144531 213.640625 198.097656 212.445312 C 196.902344 211.25 195.109375 211.25 193.914062 212.296875 C 192.867188 213.191406 191.824219 214.089844 190.777344 214.835938 C 189.433594 215.730469 189.132812 217.675781 190.03125 219.019531 C 190.628906 219.914062 191.523438 220.363281 192.421875 220.363281 Z M 192.421875 220.363281 "/><path style=" stroke:none;fill-rule:nonzero;fill:#ffffff;fill-opacity:1;" d="M 153.273438 243.972656 C 152.378906 244.121094 151.332031 244.417969 150.433594 244.570312 C 148.792969 244.867188 147.597656 246.363281 147.894531 248.003906 C 148.042969 249.5 149.390625 250.546875 150.882812 250.546875 C 151.03125 250.546875 151.183594 250.546875 151.332031 250.546875 C 152.527344 250.394531 153.574219 250.097656 154.769531 249.949219 C 155.214844 249.796875 155.664062 249.796875 156.113281 249.648438 C 157.757812 249.199219 158.652344 247.558594 158.203125 246.0625 C 157.757812 244.417969 156.113281 243.523438 154.617188 243.972656 C 154.019531 243.820312 153.722656 243.820312 153.273438 243.972656 Z M 153.273438 243.972656 "/><path style=" stroke:none;fill-rule:nonzero;fill:#ffffff;fill-opacity:1;" d="M 217.222656 187.492188 C 217.96875 187.492188 218.71875 187.195312 219.316406 186.597656 C 220.511719 185.402344 221.554688 184.207031 222.601562 183.011719 C 223.648438 181.664062 223.347656 179.871094 222.152344 178.828125 C 220.808594 177.78125 219.015625 178.078125 217.96875 179.273438 C 217.074219 180.320312 216.175781 181.367188 215.28125 182.261719 C 214.085938 183.457031 214.085938 185.25 215.28125 186.445312 C 215.578125 187.195312 216.328125 187.492188 217.222656 187.492188 Z M 217.222656 187.492188 "/><path style=" stroke:none;fill-rule:nonzero;fill:#ffffff;fill-opacity:1;" d="M 208.257812 185.699219 C 207.808594 184.054688 207.363281 182.5625 206.914062 181.066406 C 206.316406 179.574219 204.671875 178.675781 203.027344 179.273438 C 201.535156 179.871094 200.636719 181.515625 201.234375 183.160156 C 201.683594 184.355469 202.132812 185.699219 202.429688 187.042969 C 202.730469 188.238281 203.625 189.136719 204.820312 189.285156 C 204.375 189.882812 204.222656 190.480469 204.375 191.226562 C 203.625 191.675781 203.179688 192.574219 203.027344 193.46875 C 203.027344 194.8125 202.730469 196.160156 202.429688 197.355469 C 202.132812 198.996094 203.027344 200.492188 204.671875 200.941406 C 204.820312 200.941406 205.121094 200.941406 205.269531 200.941406 C 206.613281 200.941406 207.808594 200.042969 208.257812 198.550781 C 208.558594 196.90625 208.855469 195.261719 208.855469 193.617188 C 208.855469 193.46875 208.855469 193.320312 208.855469 193.320312 C 210.199219 192.722656 211.394531 192.125 212.742188 191.378906 C 214.085938 190.480469 214.683594 188.6875 213.785156 187.34375 C 212.890625 186 211.097656 185.402344 209.753906 186.296875 C 209.304688 186.597656 208.707031 186.894531 208.109375 187.195312 C 208.40625 186.746094 208.40625 186.148438 208.257812 185.699219 Z M 208.257812 185.699219 "/><path style=" stroke:none;fill-rule:nonzero;fill:#ffffff;fill-opacity:1;" d="M 167.019531 222.007812 C 166.722656 223.652344 167.765625 225.144531 169.410156 225.59375 C 170.308594 225.742188 171.351562 225.890625 172.25 226.042969 C 172.996094 226.042969 173.59375 226.191406 174.339844 226.191406 C 174.339844 226.191406 174.339844 226.191406 174.492188 226.191406 C 176.132812 226.191406 177.480469 224.847656 177.480469 223.351562 C 177.480469 221.707031 176.285156 220.363281 174.640625 220.214844 C 174.042969 220.214844 173.59375 220.214844 172.996094 220.066406 C 172.25 219.914062 171.503906 219.914062 170.753906 219.765625 C 168.960938 219.316406 167.320312 220.363281 167.019531 222.007812 Z M 167.019531 222.007812 "/><path style=" stroke:none;fill-rule:nonzero;fill:#ffffff;fill-opacity:1;" d="M 173.144531 200.640625 C 172.25 201.984375 172.546875 203.777344 173.894531 204.824219 C 174.789062 205.421875 175.6875 206.320312 176.433594 207.363281 C 177.03125 208.113281 177.925781 208.558594 178.824219 208.558594 C 179.421875 208.558594 180.167969 208.410156 180.617188 207.960938 C 181.960938 206.917969 182.109375 205.125 181.214844 203.777344 C 180.167969 202.285156 178.824219 201.089844 177.328125 200.042969 C 175.984375 198.996094 174.191406 199.296875 173.144531 200.640625 Z M 173.144531 200.640625 "/><path style=" stroke:none;fill-rule:nonzero;fill:#ffffff;fill-opacity:1;" d="M 195.257812 195.261719 C 196.453125 195.410156 197.800781 195.5625 199.144531 195.5625 C 199.59375 195.5625 199.890625 195.5625 200.339844 195.5625 C 201.984375 195.410156 203.328125 194.066406 203.179688 192.421875 C 203.179688 190.78125 201.832031 189.585938 200.191406 189.585938 C 200.191406 189.585938 200.039062 189.585938 200.039062 189.585938 C 198.695312 189.585938 197.5 189.585938 196.15625 189.433594 C 194.511719 189.136719 193.019531 190.332031 192.71875 191.976562 C 192.421875 193.46875 193.617188 194.964844 195.257812 195.261719 Z M 195.257812 195.261719 "/><path style=" stroke:none;fill-rule:nonzero;fill:#ffffff;fill-opacity:1;" d="M 178.226562 175.988281 C 177.925781 176.882812 177.777344 177.929688 177.777344 178.976562 C 177.777344 180.023438 177.925781 180.917969 178.226562 181.964844 C 178.523438 183.308594 179.71875 184.207031 181.066406 184.207031 C 181.363281 184.207031 181.511719 184.207031 181.8125 184.054688 C 183.457031 183.609375 184.351562 181.964844 183.902344 180.46875 C 183.753906 180.023438 183.753906 179.425781 183.753906 178.976562 C 183.753906 178.527344 183.753906 178.078125 183.902344 177.632812 C 184.351562 175.988281 183.457031 174.34375 181.8125 173.894531 C 180.316406 173.449219 178.675781 174.34375 178.226562 175.988281 Z M 178.226562 175.988281 "/></g></svg>