<svg xmlns="http://www.w3.org/2000/svg" xmlns:xlink="http://www.w3.org/1999/xlink" width="500" zoomAndPan="magnify" viewBox="0 0 375 374.999991" height="500" preserveAspectRatio="xMidYMid meet" version="1.2"><defs><clipPath id="a0d18e05dd"><path d="M 105.113281 121.058594 L 309.132812 121.058594 L 309.132812 253.636719 L 105.113281 253.636719 Z M 105.113281 121.058594 "/></clipPath><clipPath id="3eab41377c"><path d="M 66.136719 122 L 262.707031 122 L 262.707031 253.636719 L 66.136719 253.636719 Z M 66.136719 122 "/></clipPath></defs><g id="0ef6ebd8da"><g clip-rule="nonzero" clip-path="url(#a0d18e05dd)"><path style=" stroke:none;fill-rule:nonzero;fill:#ffffff;fill-opacity:1;" d="M 309.128906 165.90625 L 281.742188 121.058594 L 260.871094 133.71875 L 288.265625 178.566406 Z M 257.429688 135.75 C 253.015625 138.179688 245.066406 140.527344 244.964844 140.546875 C 237.871094 141.972656 231.125 140.4375 224.605469 138.953125 C 221.554688 138.257812 218.402344 137.539062 215.332031 137.171875 C 207.03125 136.167969 198.542969 137.414062 191.898438 140.554688 C 191.824219 140.585938 191.753906 140.613281 191.6875 140.648438 L 191.628906 140.574219 C 191.574219 140.621094 191.523438 140.671875 191.460938 140.71875 L 156.890625 164.09375 C 154.929688 165.332031 153.613281 167.179688 153.121094 169.359375 C 152.625 171.535156 153.011719 173.777344 154.207031 175.664062 C 155.398438 177.550781 157.257812 178.863281 159.445312 179.351562 C 161.636719 179.847656 163.878906 179.464844 165.773438 178.269531 L 205.230469 156.96875 L 205.632812 156.75 C 205.679688 156.722656 205.726562 156.710938 205.78125 156.683594 C 205.8125 156.671875 205.851562 156.660156 205.886719 156.636719 C 206.136719 156.539062 206.394531 156.488281 206.652344 156.480469 C 206.6875 156.472656 206.71875 156.472656 206.753906 156.480469 C 206.917969 156.480469 207.082031 156.492188 207.25 156.53125 C 207.347656 156.554688 207.441406 156.578125 207.535156 156.613281 C 207.558594 156.625 207.59375 156.636719 207.625 156.652344 C 207.878906 156.757812 208.109375 156.902344 208.320312 157.09375 C 208.328125 157.101562 208.347656 157.105469 208.359375 157.113281 L 260.089844 206.765625 L 284.828125 181.015625 C 280.539062 173.929688 262.507812 144.136719 257.429688 135.75 Z M 134.289062 228.863281 L 146.582031 218.917969 C 149.738281 216.355469 150.222656 211.710938 147.65625 208.558594 C 146.199219 206.777344 144.066406 205.847656 141.914062 205.847656 C 140.28125 205.847656 138.632812 206.386719 137.269531 207.488281 L 124.984375 217.445312 C 123.449219 218.6875 122.496094 220.445312 122.296875 222.398438 C 122.089844 224.351562 122.660156 226.273438 123.910156 227.796875 C 125.148438 229.320312 126.917969 230.269531 128.875 230.476562 C 130.835938 230.671875 132.761719 230.105469 134.289062 228.863281 Z M 142.175781 244.679688 C 144.125 244.875 146.054688 244.308594 147.589844 243.070312 L 166.175781 228.015625 C 169.332031 225.453125 169.816406 220.808594 167.25 217.664062 C 166.003906 216.140625 164.242188 215.183594 162.277344 214.984375 C 162.019531 214.957031 161.761719 214.945312 161.507812 214.945312 C 159.816406 214.945312 158.191406 215.511719 156.863281 216.59375 L 138.273438 231.648438 C 136.738281 232.890625 135.785156 234.652344 135.585938 236.605469 C 135.382812 238.554688 135.957031 240.476562 137.203125 242 C 138.449219 243.523438 140.207031 244.472656 142.175781 244.679688 Z M 117.265625 200.859375 C 115.625 200.859375 113.980469 201.394531 112.613281 202.503906 L 108.0625 206.183594 C 104.90625 208.742188 104.421875 213.386719 106.992188 216.542969 C 108.238281 218.066406 110.003906 219.015625 111.964844 219.21875 C 113.929688 219.417969 115.847656 218.851562 117.378906 217.609375 L 121.925781 213.921875 C 125.082031 211.371094 125.566406 206.726562 122.996094 203.570312 C 121.542969 201.785156 119.410156 200.859375 117.265625 200.859375 Z M 158.054688 240.574219 L 162.609375 236.886719 C 163.976562 235.777344 165.621094 235.246094 167.253906 235.246094 C 169.40625 235.246094 171.539062 236.175781 172.992188 237.957031 C 175.5625 241.109375 175.078125 245.753906 171.921875 248.308594 L 167.375 251.996094 C 164.214844 254.554688 159.554688 254.074219 156.988281 250.925781 C 154.421875 247.773438 154.902344 243.136719 158.054688 240.574219 "/></g><g clip-rule="nonzero" clip-path="url(#3eab41377c)"><path style=" stroke:none;fill-rule:nonzero;fill:#ffffff;fill-opacity:1;" d="M 87 179.773438 L 114.390625 134.925781 L 93.523438 122.265625 L 66.136719 167.113281 Z M 260.429688 223.601562 C 257.65625 226.5625 252.96875 226.722656 249.996094 223.949219 L 244.65625 218.976562 C 244.648438 218.96875 244.640625 218.957031 244.628906 218.949219 L 228.160156 203.609375 L 227.128906 202.648438 C 226.1875 201.769531 224.710938 201.824219 223.835938 202.761719 C 222.957031 203.695312 223.003906 205.167969 223.941406 206.039062 L 241.445312 222.339844 C 242.886719 223.6875 243.722656 225.507812 243.789062 227.464844 C 243.847656 229.433594 243.144531 231.304688 241.800781 232.746094 C 240.453125 234.175781 238.625 235.007812 236.660156 235.074219 C 234.667969 235.152344 232.804688 234.441406 231.363281 233.09375 L 226.464844 228.527344 C 226.367188 228.429688 226.273438 228.324219 226.167969 228.226562 L 213.875 216.777344 L 208.664062 211.921875 C 207.726562 211.046875 206.25 211.09375 205.371094 212.027344 C 204.488281 212.964844 204.542969 214.4375 205.480469 215.316406 L 222.984375 231.617188 C 224.425781 232.957031 225.253906 234.777344 225.320312 236.742188 C 225.386719 238.707031 224.683594 240.582031 223.335938 242.019531 C 221.992188 243.453125 220.164062 244.28125 218.191406 244.347656 C 216.191406 244.429688 214.339844 243.710938 212.902344 242.371094 L 195.402344 226.066406 C 195.394531 226.0625 195.386719 226.0625 195.378906 226.054688 L 190.144531 221.179688 C 189.203125 220.308594 187.734375 220.355469 186.855469 221.292969 C 185.972656 222.226562 186.019531 223.699219 186.960938 224.578125 L 204.460938 240.878906 C 207.441406 243.648438 207.601562 248.3125 204.820312 251.277344 C 203.476562 252.714844 201.644531 253.539062 199.675781 253.605469 C 197.71875 253.683594 195.824219 252.972656 194.386719 251.632812 L 176.878906 235.332031 C 176.878906 235.332031 176.878906 235.332031 176.878906 235.324219 C 176.851562 235.296875 176.8125 235.289062 176.78125 235.265625 C 176.71875 235.191406 176.675781 235.105469 176.609375 235.027344 C 174.839844 232.855469 172.457031 231.472656 169.910156 230.902344 C 174.332031 226.621094 174.828125 219.589844 170.867188 214.734375 C 168.835938 212.246094 165.957031 210.691406 162.761719 210.359375 C 159.570312 210.042969 156.445312 210.960938 153.949219 212.964844 C 153.902344 210.378906 153.03125 207.792969 151.269531 205.628906 C 147.085938 200.496094 139.480469 199.710938 134.332031 203.886719 L 129.292969 207.964844 C 129.246094 205.386719 128.371094 202.800781 126.617188 200.640625 C 124.109375 197.566406 120.371094 196.0625 116.667969 196.242188 C 114.195312 196.359375 111.738281 197.226562 109.671875 198.902344 L 107.890625 200.34375 L 91.007812 182.765625 C 95.296875 175.679688 113.3125 145.898438 118.398438 137.492188 C 122.820312 139.921875 130.769531 142.269531 130.867188 142.289062 C 137.964844 143.722656 144.710938 142.183594 151.230469 140.699219 C 154.273438 140.007812 157.433594 139.289062 160.503906 138.917969 C 168.042969 138.007812 175.734375 138.9375 182.0625 141.464844 L 154.332031 160.207031 C 151.386719 162.0625 149.34375 164.953125 148.574219 168.335938 C 148.394531 169.128906 148.296875 169.925781 148.265625 170.71875 C 148.164062 173.324219 148.839844 175.894531 150.269531 178.140625 C 152.121094 181.082031 155.023438 183.121094 158.417969 183.886719 C 159.390625 184.101562 160.371094 184.214844 161.34375 184.214844 C 163.761719 184.214844 166.117188 183.542969 168.121094 182.277344 L 206.355469 161.640625 L 209.59375 164.746094 L 260.078125 213.195312 C 263.050781 215.96875 263.210938 220.632812 260.429688 223.601562 "/></g></g></svg>