<svg xmlns="http://www.w3.org/2000/svg" xmlns:xlink="http://www.w3.org/1999/xlink" width="500" zoomAndPan="magnify" viewBox="0 0 375 374.999991" height="500" preserveAspectRatio="xMidYMid meet" version="1.2"><defs><clipPath id="ca2fcb1f83"><path d="M 96.558594 96.785156 L 278.808594 96.785156 L 278.808594 278.285156 L 96.558594 278.285156 Z M 96.558594 96.785156 "/></clipPath></defs><g id="f0f0064b21"><g clip-rule="nonzero" clip-path="url(#ca2fcb1f83)"><path style=" stroke:none;fill-rule:nonzero;fill:#ffffff;fill-opacity:1;" d="M 106.347656 216.207031 L 116.804688 216.207031 C 121.328125 216.207031 125.214844 219.332031 126.292969 223.605469 L 150.058594 212.074219 C 153.535156 210.386719 157.289062 210.019531 160.902344 211.609375 L 183.859375 221.753906 C 189.8125 224.398438 196.234375 229.449219 195.269531 236.039062 L 224.878906 224.695312 C 242.011719 218.140625 250.378906 235.140625 233.167969 244.128906 L 185.324219 269.09375 C 182.648438 270.496094 179.789062 270.851562 176.855469 270.171875 L 143.191406 262.292969 L 126.535156 269.417969 C 126.003906 274.339844 121.8125 278.148438 116.804688 278.148438 L 106.347656 278.148438 C 100.960938 278.148438 96.5625 273.746094 96.5625 268.363281 L 96.574219 268.363281 L 96.574219 225.996094 L 96.5625 225.996094 C 96.5625 220.609375 100.960938 216.207031 106.347656 216.207031 Z M 126.582031 229.566406 L 126.582031 263.441406 L 141.761719 256.964844 C 142.304688 256.695312 142.9375 256.617188 143.570312 256.761719 L 178.105469 264.832031 C 179.792969 265.230469 181.269531 265.054688 182.804688 264.253906 L 230.636719 239.289062 C 241.65625 233.535156 237.570312 225.722656 226.835938 229.835938 L 187.769531 244.78125 C 187.183594 245.015625 186.503906 245.035156 185.855469 244.792969 L 157.324219 234.28125 C 155.902344 233.757812 155.179688 232.179688 155.703125 230.757812 C 156.210938 229.332031 157.792969 228.613281 159.214844 229.132812 L 186.546875 239.210938 C 190.035156 237.023438 191.101562 234.378906 188.132812 231.113281 C 186.710938 229.542969 184.523438 228.046875 181.648438 226.777344 L 158.691406 216.621094 C 156.582031 215.6875 154.515625 216 152.4375 216.996094 Z M 116.808594 221.699219 L 106.347656 221.699219 C 103.980469 221.699219 102.050781 223.628906 102.050781 225.996094 L 102.039062 225.996094 L 102.039062 268.363281 L 102.050781 268.363281 C 102.050781 270.730469 103.980469 272.660156 106.347656 272.660156 L 116.804688 272.660156 C 119.160156 272.660156 121.101562 270.730469 121.101562 268.363281 L 121.113281 268.363281 L 121.113281 225.996094 L 121.101562 225.996094 C 121.105469 223.628906 119.160156 221.699219 116.808594 221.699219 Z M 238.894531 156.652344 C 250.382812 156.652344 259.703125 165.976562 259.703125 177.464844 C 259.703125 188.953125 250.382812 198.273438 238.894531 198.273438 C 227.40625 198.273438 218.085938 188.953125 218.085938 177.464844 C 218.085938 165.976562 227.40625 156.652344 238.894531 156.652344 Z M 249.726562 166.628906 C 243.734375 160.652344 234.035156 160.652344 228.054688 166.628906 C 222.066406 172.617188 222.066406 182.320312 228.054688 188.296875 C 234.035156 194.285156 243.734375 194.285156 249.726562 188.296875 C 255.703125 182.320312 255.703125 172.617188 249.726562 166.628906 Z M 239.550781 137.964844 C 241.871094 137.964844 243.703125 137.765625 245.5625 139.617188 C 248.148438 142.207031 246.804688 145.742188 247.339844 145.886719 L 251.386719 147.261719 L 251.398438 147.261719 C 252.707031 147.808594 253.996094 148.4375 255.230469 149.164062 L 255.433594 149.132812 L 256.933594 147.628906 C 259.132812 145.417969 262.710938 145.417969 264.910156 147.628906 L 268.773438 151.488281 C 270.972656 153.699219 270.972656 157.277344 268.773438 159.476562 L 267.207031 161.0625 C 267.207031 161.085938 267.21875 161.128906 267.238281 161.164062 C 268.660156 163.632812 269.78125 166.320312 270.515625 169.0625 C 270.648438 169.585938 274.191406 168.242188 276.78125 170.832031 C 277.804688 171.855469 278.4375 173.265625 278.4375 174.820312 L 278.4375 180.289062 C 278.4375 183.402344 275.90625 185.933594 272.792969 185.933594 L 272.792969 185.921875 L 270.671875 185.921875 L 270.671875 185.933594 L 270.515625 186.042969 C 269.78125 188.789062 268.648438 191.5 267.238281 193.941406 C 266.960938 194.410156 270.417969 195.964844 270.417969 199.628906 C 270.417969 201.074219 269.871094 202.519531 268.769531 203.621094 L 264.90625 207.484375 C 262.707031 209.683594 259.128906 209.683594 256.929688 207.484375 L 255.339844 205.917969 C 255.304688 205.90625 255.273438 205.917969 255.230469 205.941406 C 252.753906 207.375 250.109375 208.484375 247.339844 209.21875 C 246.808594 209.363281 248.152344 212.894531 245.5625 215.484375 C 244.539062 216.507812 243.128906 217.140625 241.570312 217.140625 L 236.117188 217.140625 C 232.992188 217.140625 230.472656 214.605469 230.472656 211.496094 L 230.441406 209.261719 C 230.429688 209.25 230.398438 209.226562 230.347656 209.21875 C 227.605469 208.484375 224.90625 207.363281 222.460938 205.941406 C 221.980469 205.675781 220.449219 209.121094 216.773438 209.121094 L 216.773438 209.132812 C 215.324219 209.132812 213.882812 208.585938 212.78125 207.484375 C 211.957031 206.660156 208.851562 203.640625 208.324219 202.929688 C 203.855469 204.484375 199.167969 205.394531 194.390625 205.660156 L 194.390625 210.273438 C 194.390625 211.785156 193.15625 213.015625 191.644531 213.015625 C 190.132812 213.015625 188.902344 211.78125 188.902344 210.273438 L 188.902344 205.660156 C 163.167969 204.304688 142.324219 183.71875 140.914062 157.671875 L 136.304688 157.671875 C 134.78125 157.671875 133.558594 156.4375 133.558594 154.929688 C 133.558594 153.410156 134.78125 152.183594 136.304688 152.183594 L 140.914062 152.183594 C 142.269531 126.453125 162.855469 105.59375 188.902344 104.183594 L 188.902344 99.574219 C 188.902344 98.066406 190.136719 96.832031 191.644531 96.832031 C 193.15625 96.832031 194.390625 98.066406 194.390625 99.574219 L 194.390625 104.183594 C 214.90625 105.261719 232.738281 118.695312 239.550781 137.964844 Z M 207.75 197.316406 C 208.589844 195.425781 210.648438 194.28125 210.449219 193.9375 C 209.195312 191.769531 208.203125 189.492188 207.46875 187.105469 C 203.394531 189.117188 198.992188 190.316406 194.394531 190.671875 L 194.394531 200.175781 C 199.003906 199.894531 203.492188 198.941406 207.75 197.316406 Z M 200.613281 183.949219 C 199.761719 182.976562 199.246094 181.683594 199.246094 180.285156 L 199.257812 174.464844 C 197.726562 175.066406 196.089844 175.488281 194.390625 175.707031 L 194.390625 185.183594 C 196.570312 184.984375 198.574219 184.574219 200.613281 183.949219 Z M 207.027344 169.171875 L 207.195312 169.003906 C 207.136719 169.0625 207.082031 169.117188 207.027344 169.171875 Z M 211.683594 148.71875 C 213.183594 147.21875 214.292969 145.976562 216.773438 145.976562 C 218.769531 145.976562 219.925781 146.800781 221.261719 148.132812 C 218.347656 135.355469 207.449219 125.84375 194.394531 124.664062 L 194.394531 134.132812 C 202.515625 135.199219 209.28125 140.933594 211.683594 148.71875 Z M 226.648438 147.121094 C 227.871094 146.632812 229.101562 146.21875 230.351562 145.886719 C 230.871094 145.742188 229.527344 142.210938 232.117188 139.617188 C 232.628906 139.109375 233.226562 138.710938 233.886719 138.417969 C 227.496094 122.054688 212.050781 110.71875 194.398438 109.675781 L 194.398438 119.171875 C 210.09375 120.351562 223.246094 131.761719 226.648438 147.121094 Z M 241.570312 143.453125 L 236.117188 143.453125 C 235.527344 143.453125 236.757812 146.609375 234.792969 149.164062 C 233.117188 151.34375 231.09375 151.132812 228.527344 152.265625 L 225.195312 153.898438 C 222.984375 155.175781 220.195312 154.820312 218.382812 153.007812 L 216.773438 151.464844 C 216.648438 151.421875 213.160156 155.007812 212.792969 155.375 L 212.792969 155.363281 L 212.75 155.484375 L 214.292969 157.097656 C 216.105469 158.917969 216.472656 161.6875 215.183594 163.910156 C 214.597656 164.933594 214.074219 166 213.617188 167.109375 L 213.605469 167.109375 C 213.160156 168.175781 212.78125 169.296875 212.472656 170.476562 C 211.804688 172.953125 209.582031 174.664062 207.015625 174.664062 L 204.78125 174.707031 C 204.671875 174.761719 204.738281 179.777344 204.738281 180.285156 C 204.738281 180.875 207.894531 179.644531 210.449219 181.605469 C 211.417969 182.339844 212.136719 183.386719 212.472656 184.628906 C 213.082031 186.941406 214.003906 189.152344 215.183594 191.195312 C 216.472656 193.417969 216.105469 196.203125 214.292969 198.007812 L 212.75 199.628906 C 212.71875 199.671875 216.546875 203.640625 216.773438 203.640625 L 216.773438 203.652344 C 217.183594 203.652344 218.648438 200.882812 221.640625 200.496094 C 224.351562 200.140625 225.628906 201.71875 228.261719 202.730469 C 229.582031 203.25 230.324219 203.542969 231.761719 203.929688 C 234.238281 204.585938 235.949219 206.808594 235.949219 209.375 L 236.003906 211.609375 C 236.050781 211.730469 241.0625 211.652344 241.570312 211.652344 C 242.160156 211.652344 240.929688 208.496094 242.894531 205.941406 C 243.636719 204.972656 244.679688 204.261719 245.914062 203.929688 C 248.226562 203.304688 250.4375 202.398438 252.480469 201.210938 C 254.714844 199.917969 257.5 200.300781 259.300781 202.097656 L 260.910156 203.644531 C 261.03125 203.699219 264.523438 200.101562 264.890625 199.742188 C 265.300781 199.320312 262.203125 197.964844 261.777344 194.753906 C 261.621094 193.554688 261.855469 192.308594 262.488281 191.199219 C 263.699219 189.109375 264.589844 186.976562 265.207031 184.632812 C 265.875 182.15625 268.097656 180.441406 270.664062 180.441406 L 270.664062 180.453125 L 272.785156 180.453125 L 272.785156 180.441406 L 272.941406 180.285156 L 272.898438 174.707031 C 272.589844 174.40625 269.597656 175.332031 267.230469 173.507812 C 265.042969 171.832031 265.261719 169.808594 264.117188 167.230469 C 263.542969 165.910156 263.214844 165.175781 262.484375 163.90625 C 261.195312 161.671875 261.582031 158.894531 263.375 157.09375 L 264.929688 155.480469 C 264.972656 155.359375 261.386719 151.871094 261.015625 151.503906 L 260.792969 151.503906 L 260.78125 151.492188 C 259.273438 153.011719 258.269531 154.3125 256.027344 154.617188 C 254.828125 154.773438 253.582031 154.539062 252.472656 153.894531 C 251.460938 153.304688 250.394531 152.785156 249.273438 152.316406 L 249.285156 152.316406 C 248.21875 151.871094 247.085938 151.492188 245.90625 151.171875 C 243.429688 150.515625 241.71875 148.292969 241.71875 145.726562 L 241.671875 143.492188 C 241.65625 143.464844 241.613281 143.453125 241.570312 143.453125 Z M 194.394531 139.671875 L 194.394531 152.183594 L 206.90625 152.183594 C 205.761719 145.796875 200.726562 140.804688 194.394531 139.671875 Z M 206.90625 157.671875 L 194.394531 157.671875 L 194.394531 170.171875 C 200.769531 169.027344 205.761719 163.996094 206.90625 157.671875 Z M 188.90625 200.1875 L 188.90625 190.675781 C 171.386719 189.355469 157.261719 175.398438 155.90625 157.675781 L 146.398438 157.675781 C 147.785156 180.648438 166.183594 198.828125 188.90625 200.1875 Z M 188.90625 185.183594 L 188.90625 175.71875 C 179.5625 174.496094 172.09375 167.109375 170.863281 157.675781 L 161.398438 157.675781 C 162.714844 172.328125 174.394531 183.882812 188.90625 185.183594 Z M 188.90625 170.171875 L 188.90625 157.671875 L 176.40625 157.671875 C 177.539062 164.054688 182.570312 169.039062 188.90625 170.171875 Z M 146.394531 152.183594 L 155.894531 152.183594 C 157.214844 134.664062 171.179688 120.53125 188.90625 119.171875 L 188.90625 109.675781 C 165.917969 111.0625 147.75 129.460938 146.394531 152.183594 Z M 161.394531 152.183594 L 170.859375 152.183594 C 172.082031 142.839844 179.472656 135.375 188.902344 134.144531 L 188.902344 124.675781 C 174.238281 125.984375 162.695312 137.675781 161.394531 152.183594 Z M 176.394531 152.183594 L 188.90625 152.183594 L 188.90625 139.671875 C 182.523438 140.816406 177.539062 145.851562 176.394531 152.183594 Z M 176.394531 152.183594 "/></g></g></svg>